<svg width="28" height="28" viewBox="0 0 28 28" fill="none" xmlns="http://www.w3.org/2000/svg">
<path opacity="0.4" d="M20.2223 0.666687H7.77786C3.2386 0.666687 0.666748 3.23854 0.666748 7.7778V20.2222C0.666748 24.7497 3.22675 27.3334 7.77786 27.3334H20.2223C24.7616 27.3334 27.3334 24.7497 27.3334 20.2222V7.7778C27.3334 3.23854 24.7616 0.666687 20.2223 0.666687Z" fill="#377DFF"/>
<path d="M18.4274 14.9445H14.9994V18.3427C14.9994 18.8898 14.552 19.3334 14.0001 19.3334C13.4482 19.3334 13.0007 18.8898 13.0007 18.3427V14.9445H9.57281C9.05798 14.8916 8.66675 14.4615 8.66675 13.9484C8.66675 13.4354 9.05798 13.0053 9.57281 12.9524H12.99V9.56489C13.0433 9.05452 13.4771 8.66669 13.9947 8.66669C14.5123 8.66669 14.9461 9.05452 14.9994 9.56489V12.9524H18.4274C18.9422 13.0053 19.3334 13.4354 19.3334 13.9484C19.3334 14.4615 18.9422 14.8916 18.4274 14.9445Z" fill="#377DFF"/>
</svg>
