<svg width="24" height="24" viewBox="0 0 24 24" fill="none" xmlns="http://www.w3.org/2000/svg">
<rect opacity="0.3" x="7" y="11" width="10" height="2" rx="1" fill="#377DFF"/>
<path d="M15.2929 6.70711C14.9024 6.31658 14.9024 5.68342 15.2929 5.29289C15.6834 4.90237 16.3166 4.90237 16.7071 5.29289L22.7071 11.2929C23.0857 11.6715 23.0989 12.2811 22.7372 12.6757L17.2372 18.6757C16.864 19.0828 16.2314 19.1103 15.8243 18.7372C15.4172 18.364 15.3897 17.7314 15.7628 17.3243L20.6159 12.0301L15.2929 6.70711Z" fill="#377DFF"/>
<path d="M8.70711 17.2929C9.09763 17.6834 9.09763 18.3166 8.70711 18.7071C8.31658 19.0976 7.68342 19.0976 7.29289 18.7071L1.29289 12.7071C0.914316 12.3285 0.90107 11.7189 1.26285 11.3243L6.76285 5.32428C7.13604 4.91716 7.76861 4.88966 8.17573 5.26285C8.58284 5.63605 8.61035 6.26861 8.23716 6.67573L3.38414 11.9699L8.70711 17.2929Z" fill="#377DFF"/>
</svg>
