<svg width="32" height="32" viewBox="0 0 32 32" fill="none" xmlns="http://www.w3.org/2000/svg">
<path opacity="0.4" d="M21.7865 2.66638H10.2265C5.7065 2.66638 2.6665 5.83972 2.6665 10.5597V21.453C2.6665 26.1597 5.7065 29.333 10.2265 29.333H21.7865C26.3065 29.333 29.3332 26.1597 29.3332 21.453V10.5597C29.3332 5.83972 26.3065 2.66638 21.7865 2.66638Z" fill="#F13232"/>
<path d="M20.0211 18.3604L17.6491 15.9898L20.0198 13.6191C20.4758 13.1644 20.4758 12.4244 20.0198 11.9698C19.5638 11.5111 18.8264 11.5124 18.3704 11.9684L15.9984 14.3391L13.6264 11.9658C13.1704 11.5098 12.4318 11.5124 11.9758 11.9658C11.5211 12.4218 11.5211 13.1618 11.9758 13.6164L14.3491 15.9898L11.9811 18.3564C11.5251 18.8124 11.5251 19.5524 11.9811 20.0058C12.2091 20.2351 12.5064 20.3484 12.8051 20.3484C13.1051 20.3484 13.4024 20.2351 13.6304 20.0071L15.9984 17.6391L18.3718 20.0111C18.5998 20.2391 18.8971 20.3524 19.1958 20.3524C19.4944 20.3524 19.7931 20.2378 20.0211 20.0111C20.4771 19.5551 20.4771 18.8164 20.0211 18.3604Z" fill="#F13232"/>
</svg>
