<svg width="38" height="38" viewBox="0 0 38 38" fill="none" xmlns="http://www.w3.org/2000/svg">
<path opacity="0.4" d="M27.246 0H10.773C4.332 0 0 4.522 0 11.248V26.771C0 33.478 4.332 38 10.773 38H27.246C33.687 38 38 33.478 38 26.771V11.248C38 4.522 33.687 0 27.246 0Z" fill="#377DFF"/>
<path d="M16.7444 25.1714C16.3188 25.1714 15.8932 25.0099 15.5683 24.685L11.0596 20.1763C10.4098 19.5265 10.4098 18.4739 11.0596 17.826C11.7094 17.1762 12.7601 17.1743 13.4099 17.8241L16.7444 21.1586L24.5876 13.3154C25.2374 12.6656 26.2881 12.6656 26.9379 13.3154C27.5877 13.9652 27.5877 15.0178 26.9379 15.6676L17.9205 24.685C17.5956 25.0099 17.17 25.1714 16.7444 25.1714Z" fill="#377DFF"/>
</svg>
