<svg width="38" height="38" viewBox="0 0 38 38" fill="none" xmlns="http://www.w3.org/2000/svg">
<path opacity="0.4" d="M38 19C38 29.4785 29.4766 38 19 38C8.5234 38 0 29.4785 0 19C0 8.5234 8.5234 0 19 0C29.4766 0 38 8.5234 38 19Z" fill="#28282C"/>
<path d="M27.0193 16.2594C27.0193 16.6223 26.8806 16.9871 26.6032 17.2645L20.0102 23.8898C19.7423 24.1577 19.3794 24.3078 18.9994 24.3078C18.6213 24.3078 18.2584 24.1577 17.9905 23.8898L11.3937 17.2645C10.8389 16.7078 10.8389 15.8072 11.3975 15.2505C11.9561 14.6957 12.8586 14.6976 13.4134 15.2543L18.9994 20.865L24.5854 15.2543C25.1402 14.6976 26.0408 14.6957 26.5994 15.2505C26.8806 15.5279 27.0193 15.8946 27.0193 16.2594Z" fill="#28282C"/>
</svg>
