<svg width="38" height="38" viewBox="0 0 38 38" fill="none" xmlns="http://www.w3.org/2000/svg">
<path opacity="0.4" d="M38 19C38 29.4785 29.4766 38 19 38C8.5234 38 0 29.4785 0 19C0 8.5234 8.5234 0 19 0C29.4766 0 38 8.5234 38 19Z" fill="#AAB0B7"/>
<path d="M27.0193 16.2595C27.0193 16.6224 26.8806 16.9872 26.6032 17.2646L20.0102 23.8899C19.7423 24.1578 19.3794 24.3079 18.9994 24.3079C18.6213 24.3079 18.2584 24.1578 17.9905 23.8899L11.3937 17.2646C10.8389 16.7079 10.8389 15.8073 11.3975 15.2506C11.9561 14.6958 12.8586 14.6977 13.4134 15.2544L18.9994 20.8651L24.5854 15.2544C25.1402 14.6977 26.0408 14.6958 26.5994 15.2506C26.8806 15.528 27.0193 15.8947 27.0193 16.2595Z" fill="#AAB0B7"/>
</svg>
