<svg width="32" height="32" viewBox="0 0 32 32" fill="none" xmlns="http://www.w3.org/2000/svg">
<path opacity="0.4" d="M22.2223 2.66669H9.77786C5.2386 2.66669 2.66675 5.23854 2.66675 9.7778V22.2222C2.66675 26.7497 5.22675 29.3334 9.77786 29.3334H22.2223C26.7616 29.3334 29.3334 26.7497 29.3334 22.2222V9.7778C29.3334 5.23854 26.7616 2.66669 22.2223 2.66669Z" fill="#2DCA8C"/>
<path d="M22.1581 21.2944C22.6224 21.2944 23 21.6769 23 22.1472C23 22.6184 22.6224 23 22.1581 23H17.3997C16.9355 23 16.5579 22.6184 16.5579 22.1472C16.5579 21.6769 16.9355 21.2944 17.3997 21.2944H22.1581ZM18.8582 8.58255L20.0874 9.55899C20.5914 9.95314 20.9275 10.4727 21.0424 11.0192C21.1751 11.6202 21.0336 12.2106 20.6357 12.7212L13.3137 22.1899C12.9776 22.6199 12.4824 22.8618 11.9518 22.8707L9.03366 22.9066C8.87449 22.9066 8.74184 22.7991 8.70647 22.6468L8.04325 19.7712C7.92829 19.2427 8.04325 18.6963 8.37928 18.2752L13.5701 11.5566C13.6585 11.4491 13.8177 11.4321 13.9238 11.5119L16.108 13.2497C16.2495 13.3662 16.4441 13.4289 16.6475 13.402C17.0808 13.3483 17.3726 12.9541 17.3284 12.5331C17.3018 12.3181 17.1957 12.1389 17.0542 12.0045C17.01 11.9687 14.9319 10.3025 14.9319 10.3025C14.7993 10.195 14.7728 9.99793 14.8789 9.86446L15.7013 8.79755C16.4618 7.82111 17.7882 7.73153 18.8582 8.58255Z" fill="#2DCA8C"/>
</svg>
