<svg width="24" height="24" viewBox="0 0 24 24" fill="none" xmlns="http://www.w3.org/2000/svg">
<path opacity="0.3" fill-rule="evenodd" clip-rule="evenodd" d="M11.3658 10.8226L4.9998 17L4.9998 20L7.9998 20L7.9998 18L9.94158 18V16L11.9998 16L14.1842 13.641L11.3658 10.8226Z" fill="#858A8F"/>
<path fill-rule="evenodd" clip-rule="evenodd" d="M20.228 13.2279C17.8848 15.5711 14.0859 15.5711 11.7427 13.2279C9.39957 10.8848 9.39957 7.08579 11.7427 4.74264C14.0859 2.39949 17.8848 2.39949 20.228 4.74264C22.5711 7.08579 22.5711 10.8848 20.228 13.2279ZM18.1821 9.18198C17.5963 9.76777 16.6465 9.76777 16.0607 9.18198C15.4749 8.59619 15.4749 7.64645 16.0607 7.06066C16.6465 6.47487 17.5963 6.47487 18.1821 7.06066C18.7678 7.64645 18.7678 8.59619 18.1821 9.18198Z" fill="#858A8F"/>
</svg>
