<svg width="24" height="24" viewBox="0 0 24 24" fill="none" xmlns="http://www.w3.org/2000/svg">
<path fill-rule="evenodd" clip-rule="evenodd" d="M12.798 9.384C12.4681 9.62888 12 9.39338 12 8.98251V7.99996H8C5.79086 7.99996 4 9.79082 4 12V13C4 14.6568 5.34315 16 7 16V18C4.23858 18 2 15.7614 2 13V12C2 8.68625 4.68629 5.99996 8 5.99996H12V4.72796C12 4.31639 12.4695 4.08107 12.7992 4.32736L15.6562 6.46133C15.9245 6.66167 15.9239 7.06388 15.655 7.26341L12.798 9.384Z" fill="#858A8F"/>
<path opacity="0.3" fill-rule="evenodd" clip-rule="evenodd" d="M17 6V8C18.6569 8 20 9.34315 20 11V12C20 14.2091 18.2091 16 16 16H12.0583V14.728C12.0583 14.3164 11.5889 14.0811 11.2591 14.3274L8.40209 16.4614C8.13386 16.6617 8.13447 17.0639 8.40329 17.2635L11.2603 19.384C11.5903 19.6289 12.0583 19.3934 12.0583 18.9825V18H16C19.3137 18 22 15.3137 22 12V11C22 8.23858 19.7614 6 17 6Z" fill="#858A8F"/>
</svg>
