<svg width="32" height="32" viewBox="0 0 32 32" fill="none" xmlns="http://www.w3.org/2000/svg">
<path opacity="0.3" d="M19.057 22.2761C18.5363 21.7554 18.5363 20.9112 19.057 20.3905C19.5777 19.8698 20.4219 19.8698 20.9426 20.3905L26.276 25.7239C26.7967 26.2446 26.7967 27.0888 26.276 27.6095C25.7553 28.1302 24.9111 28.1302 24.3904 27.6095L19.057 22.2761Z" fill="#858A8F"/>
<path fill-rule="evenodd" clip-rule="evenodd" d="M5.3335 14.6667C5.3335 19.8213 9.51217 24 14.6668 24C19.8215 24 24.0002 19.8213 24.0002 14.6667C24.0002 9.51202 19.8215 5.33334 14.6668 5.33334C9.51217 5.33334 5.3335 9.51202 5.3335 14.6667ZM21.3335 14.6667C21.3335 18.3486 18.3487 21.3333 14.6668 21.3333C10.9849 21.3333 8.00016 18.3486 8.00016 14.6667C8.00016 10.9848 10.9849 8.00001 14.6668 8.00001C18.3487 8.00001 21.3335 10.9848 21.3335 14.6667Z" fill="#858A8F"/>
</svg>
