<svg width="24" height="24" viewBox="0 0 24 24" fill="none" xmlns="http://www.w3.org/2000/svg">
<path opacity="0.3" fill-rule="evenodd" clip-rule="evenodd" d="M0 12C0 8.68629 1.17157 5.85786 3.51472 3.51472C5.85786 1.17157 8.68629 0 12 0C15.3137 0 18.1421 1.17157 20.4853 3.51472C22.8284 5.85786 24 8.68629 24 12C24 15.3137 22.8284 18.1421 20.4853 20.4853C18.1421 22.8284 15.3137 24 12 24C8.68629 24 5.85786 22.8284 3.51472 20.4853C1.17157 18.1421 0 15.3137 0 12Z" fill="#858A8F"/>
<path fill-rule="evenodd" clip-rule="evenodd" d="M5.41875 14.6004C5.1658 14.2388 5.12842 13.7687 5.32105 13.3717C5.51368 12.9747 5.90613 12.7132 6.34666 12.6882C6.78719 12.6631 7.20674 12.8786 7.4431 13.2512C8.85075 15.3621 10.5109 16.3586 12.5123 16.3586C14.5137 16.3586 16.1739 15.3621 17.5815 13.2512C17.8179 12.8786 18.2374 12.6631 18.678 12.6882C19.1185 12.7132 19.5109 12.9748 19.7036 13.3717C19.8962 13.7687 19.8588 14.2388 19.6059 14.6004C17.7694 17.3541 15.3767 18.791 12.5102 18.791C9.64379 18.791 7.25005 17.3541 5.41875 14.6004Z" fill="#858A8F"/>
</svg>
