<svg width="24" height="24" viewBox="0 0 24 24" fill="none" xmlns="http://www.w3.org/2000/svg">
<path d="M12 15C10.3431 15 9 13.6569 9 12C9 10.3431 10.3431 9 12 9C13.6569 9 15 10.3431 15 12C15 13.6569 13.6569 15 12 15Z" fill="white"/>
<path opacity="0.3" fill-rule="evenodd" clip-rule="evenodd" d="M10.5 3C10.5 2.17157 11.1716 1.5 12 1.5C12.8284 1.5 13.5 2.17157 13.5 3V4.5C13.5 5.32843 12.8284 6 12 6C11.1716 6 10.5 5.32843 10.5 4.5V3ZM16.0607 5.87132C15.4749 6.45711 15.4749 7.40685 16.0607 7.99264C16.6464 8.57843 17.5962 8.57843 18.182 7.99264L19.2426 6.93198C19.8284 6.34619 19.8284 5.39645 19.2426 4.81066C18.6569 4.22487 17.7071 4.22487 17.1213 4.81066L16.0607 5.87132ZM19.5 10.5C18.6716 10.5 18 11.1716 18 12C18 12.8284 18.6716 13.5 19.5 13.5H21C21.8284 13.5 22.5 12.8284 22.5 12C22.5 11.1716 21.8284 10.5 21 10.5H19.5ZM16.0607 16.0607C15.4749 16.6464 15.4749 17.5962 16.0607 18.182L17.1213 19.2426C17.7071 19.8284 18.6569 19.8284 19.2426 19.2426C19.8284 18.6569 19.8284 17.7071 19.2426 17.1213L18.182 16.0607C17.5962 15.4749 16.6464 15.4749 16.0607 16.0607ZM3 10.5C2.17157 10.5 1.5 11.1716 1.5 12C1.5 12.8284 2.17157 13.5 3 13.5H4.5C5.32843 13.5 6 12.8284 6 12C6 11.1716 5.32843 10.5 4.5 10.5H3ZM12 18C11.1716 18 10.5 18.6716 10.5 19.5V21C10.5 21.8284 11.1716 22.5 12 22.5C12.8284 22.5 13.5 21.8284 13.5 21V19.5C13.5 18.6716 12.8284 18 12 18ZM4.81066 6.93198C4.22487 6.34619 4.22487 5.39645 4.81066 4.81066C5.39645 4.22487 6.34619 4.22487 6.93198 4.81066L7.99264 5.87132C8.57843 6.45711 8.57843 7.40685 7.99264 7.99264C7.40685 8.57843 6.45711 8.57843 5.87132 7.99264L4.81066 6.93198ZM4.81066 19.2426C4.22487 18.6569 4.22487 17.7071 4.81066 17.1213L5.87132 16.0607C6.45711 15.4749 7.40685 15.4749 7.99264 16.0607C8.57843 16.6464 8.57843 17.5962 7.99264 18.182L6.93198 19.2426C6.34619 19.8284 5.39645 19.8284 4.81066 19.2426Z" fill="white"/>
</svg>
