<svg width="38" height="38" viewBox="0 0 38 38" fill="none" xmlns="http://www.w3.org/2000/svg">
<path opacity="0.4" d="M0 19C0 8.5215 8.5234 0 19 0C29.4766 0 38 8.5215 38 19C38 29.4766 29.4766 38 19 38C8.5234 38 0 29.4766 0 19Z" fill="#2DCA8C"/>
<path d="M10.9807 21.7405C10.9807 21.3776 11.1194 21.0128 11.3968 20.7354L17.9898 14.1101C18.2577 13.8422 18.6206 13.6921 19.0006 13.6921C19.3787 13.6921 19.7416 13.8422 20.0095 14.1101L26.6063 20.7354C27.1611 21.2921 27.1611 22.1927 26.6025 22.7494C26.0439 23.3042 25.1414 23.3023 24.5866 22.7456L19.0006 17.1349L13.4146 22.7456C12.8598 23.3023 11.9592 23.3042 11.4006 22.7494C11.1194 22.472 10.9807 22.1053 10.9807 21.7405Z" fill="#28282C"/>
</svg>
