<svg width="120" height="22" viewBox="0 0 120 22" fill="none" xmlns="http://www.w3.org/2000/svg">
<path d="M0 20.9392V1.06194H4.46557V17.0182H12.2531V20.9392H0ZM21.5867 21.4565C19.8441 21.4565 18.3555 21.1025 17.1212 20.3946C15.9049 19.6866 14.9791 18.7608 14.3438 17.6172C13.7084 16.4555 13.3908 15.1938 13.3908 13.8324V13.2061C13.3908 11.8083 13.7175 10.5286 14.371 9.3668C15.0427 8.18686 15.9866 7.25203 17.2028 6.56221C18.4372 5.85425 19.8985 5.50028 21.5867 5.50028C23.2749 5.50028 24.7362 5.85425 25.9706 6.56221C27.205 7.25203 28.1489 8.18686 28.8024 9.3668C29.4741 10.5286 29.8099 11.8083 29.8099 13.2061V13.8324C29.8099 15.1938 29.4832 16.4555 28.8297 17.6172C28.1943 18.7608 27.2685 19.6866 26.0523 20.3946C24.836 21.1025 23.3475 21.4565 21.5867 21.4565ZM21.5867 17.7806C22.8393 17.7806 23.7923 17.3812 24.4458 16.5825C25.1174 15.7656 25.4533 14.7491 25.4533 13.5329C25.4533 12.2803 25.1083 11.2456 24.4185 10.4287C23.7469 9.59373 22.8029 9.1762 21.5867 9.1762C20.3705 9.1762 19.4265 9.59373 18.7549 10.4287C18.0832 11.2456 17.7474 12.2803 17.7474 13.5329C17.7474 14.7491 18.0742 15.7656 18.7277 16.5825C19.3812 17.3812 20.3342 17.7806 21.5867 17.7806ZM39.1131 21.4565C37.8242 21.4565 36.6988 21.2478 35.7367 20.8302C34.7927 20.3946 34.0031 19.8137 33.3677 19.0876C32.7324 18.3615 32.2604 17.5446 31.9518 16.637C31.6432 15.7112 31.4889 14.7582 31.4889 13.7779V13.2606C31.4889 11.8991 31.7703 10.6284 32.333 9.44849C32.9139 8.26855 33.7671 7.31553 34.8926 6.58944C36.0362 5.86335 37.4339 5.50028 39.0858 5.50028C40.4291 5.50028 41.6181 5.76347 42.6528 6.28992C43.6875 6.79818 44.5135 7.51523 45.1307 8.44102C45.7479 9.3668 46.0928 10.4287 46.1654 11.6268H41.8904C41.8178 10.9552 41.5455 10.3924 41.0736 9.93861C40.6016 9.46663 39.939 9.23066 39.0858 9.23066C37.9785 9.23066 37.1617 9.63 36.6352 10.4287C36.1088 11.2093 35.8456 12.244 35.8456 13.5329C35.8456 14.7491 36.0906 15.7565 36.5808 16.5553C37.0891 17.3358 37.9332 17.7261 39.1131 17.7261C39.9844 17.7261 40.6651 17.4992 41.1552 17.0454C41.6454 16.5916 41.9358 15.9926 42.0266 15.2483H46.2743C46.2017 16.4827 45.8477 17.5718 45.2124 18.5158C44.5952 19.4416 43.7511 20.1677 42.6801 20.6941C41.6272 21.2024 40.4382 21.4565 39.1131 21.4565ZM52.8725 21.3204C51.2573 21.3204 49.9503 20.9028 48.9516 20.0678C47.9715 19.2328 47.4813 18.0529 47.4813 16.5281C47.4813 15.4389 47.7627 14.5494 48.3254 13.8596C48.8883 13.1516 49.678 12.6343 50.6942 12.3075C51.7109 11.9627 52.8818 11.7902 54.2068 11.7902H56.9024V11.7357C56.9024 10.2109 56.14 9.44849 54.6152 9.44849C54.216 9.44849 53.6894 9.46663 53.0359 9.50295C52.3824 9.52109 51.7017 9.54832 50.9937 9.58464C50.3043 9.60277 49.6867 9.63 49.1422 9.66632V5.9904C49.7777 5.93594 50.5581 5.89057 51.4839 5.85425C52.4096 5.7998 53.263 5.77257 54.0434 5.77257C56.3306 5.77257 58.0733 6.26269 59.2714 7.24294C60.4879 8.20505 61.0957 9.72078 61.0957 11.7902V20.9392H57.6376V18.1346C57.3109 19.1693 56.7483 19.9589 55.9494 20.5035C55.151 21.0481 54.1251 21.3204 52.8725 21.3204ZM54.1795 18.2979C54.8875 18.2979 55.505 18.0982 56.0311 17.6989C56.5577 17.2996 56.848 16.5371 56.9024 15.4117V14.2136H54.1795C53.4171 14.2136 52.8273 14.4042 52.4096 14.7854C52.0105 15.1666 51.8106 15.6658 51.8106 16.283C51.8106 16.882 52.0105 17.3722 52.4096 17.7534C52.8273 18.1164 53.4171 18.2979 54.1795 18.2979ZM64.547 20.9392V4.27497H62.7771V1.06194H68.9309V20.9392H64.547ZM74.9057 4.54726C74.0889 4.54726 73.4811 4.3385 73.0814 3.92099C72.7002 3.48532 72.5096 2.94074 72.5096 2.28724C72.5096 1.61559 72.7002 1.07101 73.0814 0.653499C73.4811 0.217834 74.0889 0 74.9057 0C75.7226 0 76.3216 0.217834 76.7029 0.653499C77.1025 1.07101 77.3019 1.61559 77.3019 2.28724C77.3019 2.94074 77.1025 3.48532 76.7029 3.92099C76.3216 4.3385 75.7226 4.54726 74.9057 4.54726ZM73.2175 20.9392V9.23066H71.2298V6.01763H77.5742V20.9392H73.2175ZM80.1877 20.9392V17.8895L86.995 9.72078L86.7227 9.3668H80.2149V6.01763H91.9506V9.06728L85.1161 17.2632L85.3884 17.59H92.1685V20.9392H80.1877ZM101.075 21.4565C99.8043 21.4565 98.6791 21.2387 97.6989 20.803C96.7366 20.3674 95.929 19.7864 95.2755 19.0604C94.622 18.3161 94.1319 17.4902 93.8051 16.5825C93.4784 15.6567 93.315 14.7128 93.315 13.7507V13.2061C93.315 12.2259 93.4784 11.2728 93.8051 10.3471C94.1319 9.42126 94.622 8.5953 95.2755 7.86921C95.929 7.14311 96.7187 6.5713 97.6444 6.15377C98.5882 5.71811 99.6774 5.50028 100.912 5.50028C102.509 5.50028 103.853 5.86335 104.942 6.58944C106.049 7.29739 106.893 8.23228 107.474 9.39403C108.055 10.5558 108.345 11.8083 108.345 13.1516V14.622H97.4266C97.5715 15.6386 97.9347 16.4464 98.5158 17.0454C99.1148 17.6263 99.9677 17.9167 101.075 17.9167C101.856 17.9167 102.5 17.7715 103.009 17.4811C103.535 17.1725 103.889 16.7822 104.071 16.3102H108.073C107.746 17.835 106.957 19.0785 105.704 20.0406C104.47 20.9845 102.927 21.4565 101.075 21.4565ZM100.912 9.04006C99.9677 9.04006 99.1965 9.31235 98.5975 9.85693C98.0164 10.3834 97.6444 11.1458 97.4811 12.1442H104.179C104.034 11.1458 103.68 10.3834 103.117 9.85693C102.573 9.31235 101.838 9.04006 100.912 9.04006ZM110.797 20.9392V6.01763H114.255V11.0822C114.418 9.39403 114.935 8.09613 115.807 7.18848C116.696 6.28083 117.903 5.82702 119.428 5.82702H120V9.58464H118.911C117.695 9.58464 116.76 9.91139 116.106 10.5649C115.471 11.2184 115.153 12.1442 115.153 13.3422V20.9392H110.797Z" fill="url(#paint0_linear)"/>
<defs>
<linearGradient id="paint0_linear" x1="120.298" y1="-0.455111" x2="108.792" y2="47.7104" gradientUnits="userSpaceOnUse">
<stop stop-color="#00D394"/>
<stop offset="1" stop-color="#0500FF"/>
</linearGradient>
</defs>
</svg>
